<svg xmlns="http://www.w3.org/2000/svg" xmlns:xlink="http://www.w3.org/1999/xlink" viewBox="0 0 495.58 495.58"><defs><style>.cls-1{fill:url(#Unbenannter_Verlauf_14);}.cls-2{stroke:#1b1464;stroke-miterlimit:10;fill-rule:evenodd;}</style><linearGradient id="Unbenannter_Verlauf_14" x1="247.46" y1="-0.51" x2="248.31" y2="643.87" gradientUnits="userSpaceOnUse"><stop offset="0" stop-color="#b3d1ef"/><stop offset="1" stop-color="#215d97"/></linearGradient></defs><title>Element 1</title><g id="Ebene_2" data-name="Ebene 2"><g id="Ebene_1-2" data-name="Ebene 1"><circle class="cls-1" cx="247.79" cy="247.79" r="247.79"/><path class="cls-2" d="M392.38,215.64l1.12-.07a149.28,149.28,0,0,0-281.55-29.69L423.78,289.74a179.11,179.11,0,0,1-10,30l-.1,0a180.92,180.92,0,0,1-136.83,106.6l-.09,0c-3,.49-6.09.9-9.17,1.24l-3.17.33h-.13l-2.66.22-.51,0-1.7.12-1.73.11-2.93.14c-.79,0-1.58.05-2.38.07-1.53,0-3.07.06-4.61.06h-.31A180.89,180.89,0,0,1,67.32,260.45c.22-2.34,1.36-8.54,2.77-10.75,3.83-6,10.92-10.91,19.72-13.48a47.5,47.5,0,0,1,9.31-1.75l.8-.07c13.39-1,25.39,3.41,31.76,10.71a19,19,0,0,1,4.46,8.67v0c0,.77.09,1.54.14,2.31s.12,1.38.17,2.08v.06a19,19,0,0,1-3.24,9.42c-5.27,8.07-16.43,14.13-29.7,15.11l-.86,0a149.28,149.28,0,0,0,280.92,26.89L71.77,205.85c.3-1.27.61-2.53.94-3.79a179,179,0,0,1,9.05-26.25A181.47,181.47,0,0,1,187.12,77.31h0l2.3-.8,2.31-.77.17-.06L194,75l2.09-.64.21-.05q2-.61,4.12-1.17c.71-.2,1.44-.39,2.16-.57L205,72c1-.24,2-.48,3.06-.71l.22-.05q3.12-.69,6.28-1.28c1.08-.2,2.14-.39,3.23-.57,1.44-.24,2.88-.46,4.32-.66l1.13-.15,1.14-.14,2.12-.27,2.45-.26,2.14-.21,2.18-.19.95-.08c1-.07,2-.14,3.06-.2l.56,0,2.94-.14L243.5,67l1.82,0,2.46,0h.09q3.47,0,6.9.14l2.32.1c1.43.07,2.85.16,4.27.26l.62.05,1.61.13,1.43.14,1.65.16c1.21.13,2.43.26,3.65.42l.82.11q2.89.35,5.75.83c1.21.2,2.42.41,3.63.62s2.35.44,3.52.69h0l1.71.35c1.14.24,2.27.51,3.4.77l1.69.41.25.05,2.95.75.55.15.19,0a181,181,0,0,1,132.11,150q.76,5.56,1.19,11.25v.23h0A22.64,22.64,0,0,1,426.63,246c-4.49,10.79-16.78,14.42-21.26,15.75a45.42,45.42,0,0,1-9.17,1.63l-.26,0c-14.54,1.09-27.44-4.31-33.09-12.83a17.66,17.66,0,0,1-3-8.48c-.39-5.18,1.62-10.16,5.35-14.37C371,221.19,380.88,216.49,392.38,215.64Z"/></g></g></svg>